<?xml version="1.0" encoding="UTF-8"?>
<svg width="736px" height="417px" viewBox="0 0 736 417" version="1.1" xmlns="http://www.w3.org/2000/svg" xmlns:xlink="http://www.w3.org/1999/xlink">
    <!-- Generator: Sketch 53.2 (72643) - https://sketchapp.com -->
    <title>Untitled</title>
    <desc>Created with Sketch.</desc>
    <defs>
        <polygon id="path-1" points="0 0.9209 176.2397 0.9209 176.2397 197.9089 0 197.9089"></polygon>
    </defs>
    <g id="Page-1" stroke="none" stroke-width="1" fill="none" fill-rule="evenodd">
        <g id="Group-12">
            <path d="M637.1665,143.2099 L596.7285,143.2099 C584.2705,117.6209 567.6505,94.4319 547.7465,74.5269 C501.7015,28.4819 438.0905,0.0009 367.8305,0.0009 C297.5715,0.0009 233.9585,28.4819 187.9135,74.5269 C155.1095,107.3309 131.2265,149.0519 120.1985,195.7409 L163.6305,195.7409 C173.6905,160.6809 192.5335,129.3349 217.6275,104.2409 C256.0655,65.8019 309.1715,42.0259 367.8305,42.0259 C426.4885,42.0259 479.5945,65.8019 518.0325,104.2409 C543.1265,129.3349 561.9695,160.6809 572.0285,195.7409 L615.4615,195.7409 L637.1665,195.7409 C649.7795,195.7409 661.2675,200.9199 669.6085,209.2609 C677.9495,217.6039 683.1295,229.0899 683.1295,241.7029 L683.1295,241.7049 C683.1295,254.3189 677.9515,265.8049 669.6085,274.1469 C661.2675,282.4879 649.7795,287.6679 637.1665,287.6679 L559.4205,287.6679 L559.4205,340.1979 L637.1665,340.1979 C664.2765,340.1979 688.9065,329.1239 706.7475,311.2859 C724.5865,293.4469 735.6605,268.8169 735.6605,241.7049 L735.6605,241.7029 C735.6605,214.5929 724.5865,189.9629 706.7475,172.1219 C688.9065,154.2829 664.2765,143.2099 637.1665,143.2099" id="Fill-1" fill="#1908FF"></path>
            <path d="M216.4414,415.703 L216.4414,409.056 L216.2914,409.056 C215.7424,410.515 214.9954,411.712 214.0714,412.647 C213.1494,413.595 212.0394,414.331 210.7424,414.867 C209.4574,415.403 208.0354,415.765 206.4894,415.977 C204.9424,416.189 203.0724,416.289 200.8774,416.289 L191.2364,416.289 C187.4584,416.289 184.3774,415.703 181.9834,414.53 C179.6014,413.371 177.9044,411.811 176.8944,409.879 C175.8844,407.945 175.3734,405.713 175.3734,403.206 L175.3734,377.153 L181.8084,377.153 L181.8084,401.635 C181.8084,403.755 182.1324,405.476 182.7934,406.81 C183.4544,408.133 184.8014,409.168 186.8464,409.891 C188.8924,410.627 191.9104,410.988 195.8764,410.988 L197.5224,410.988 C201.3134,410.988 204.4314,410.776 206.8514,410.365 C209.2704,409.954 211.1414,409.305 212.4384,408.407 C213.7474,407.521 214.6704,406.324 215.2074,404.828 C215.7424,403.331 216.0044,401.41 216.0044,399.078 L216.0044,377.153 L222.4404,377.153 L222.4404,415.703 L216.4414,415.703 Z M136.0044,415.703 L142.4394,415.703 L142.4394,361.003 L136.0044,361.003 L136.0044,415.703 Z M278.8824,376.567 L278.8824,381.868 L274.9164,381.868 C271.7744,381.868 269.2044,382.13 267.1844,382.666 C265.1764,383.202 263.6294,384.25 262.5454,385.808 C261.4604,387.368 260.9234,389.625 260.9234,392.568 L260.9234,399.914 C260.9234,402.384 261.3224,404.416 262.1084,406.025 C262.9064,407.621 264.2284,408.856 266.0994,409.704 C267.9574,410.564 270.4514,410.988 273.5694,410.988 L278.8824,410.988 L278.8824,416.289 L274.4804,416.289 C272.1854,416.289 270.1154,416.052 268.2444,415.578 C266.3864,415.104 264.8024,414.368 263.5054,413.371 C262.1954,412.36 261.2354,411.1 260.6364,409.567 L260.4864,409.567 L260.4864,415.703 L254.4884,415.703 L254.4884,361.003 L260.9234,361.003 L260.9234,382.342 L261.0734,382.342 C261.7464,380.321 263.0444,378.849 264.9644,377.939 C266.8724,377.029 269.6414,376.567 273.2704,376.567 L278.8824,376.567 Z M57.9864,400.724 L57.9864,392.132 C57.9864,388.777 58.5234,386.033 59.5954,383.926 C60.6684,381.818 62.0894,380.246 63.8484,379.199 C65.6194,378.151 67.6024,377.453 69.8094,377.091 C72.0174,376.742 74.4484,376.567 77.1304,376.567 L87.9184,376.567 C93.7424,376.567 97.9694,377.678 100.6264,379.897 C103.2824,382.104 104.6174,385.36 104.6174,389.65 L104.6174,390.71 L98.6184,390.71 L98.6184,389.8 C98.6184,387.754 98.2074,386.145 97.3584,384.974 C96.5234,383.801 95.3134,382.99 93.7294,382.541 C92.1464,382.093 90.2254,381.868 87.9924,381.868 L76.1454,381.868 C72.4034,381.868 69.5104,382.529 67.4774,383.863 C65.4444,385.185 64.4214,388.016 64.4214,392.356 L64.4214,400.425 C64.4214,403.206 64.9454,405.364 66.0054,406.91 C67.0664,408.457 68.5374,409.529 70.4084,410.115 C72.2914,410.701 74.6234,410.988 77.4294,410.988 L88.2794,410.988 C91.6474,410.988 94.3164,410.378 96.2984,409.142 C98.2814,407.908 99.2794,405.838 99.2794,402.92 L99.2794,401.635 L105.2654,401.635 L105.2654,402.769 C105.2654,406.075 104.7044,408.719 103.5574,410.677 C102.4094,412.635 100.6264,414.069 98.1944,414.954 C95.7744,415.84 92.5454,416.289 88.5044,416.289 L73.9874,416.289 C69.8214,416.289 66.1174,415.228 62.8624,413.108 C59.6084,410.988 57.9864,406.86 57.9864,400.724 L57.9864,400.724 Z M278.8824,416.289 L278.8824,410.988 L284.0584,410.988 C286.6644,410.988 288.7964,410.752 290.4814,410.29 C292.1644,409.829 293.4614,409.168 294.3594,408.319 C295.2574,407.472 295.8934,406.349 296.2794,404.977 C296.6544,403.605 296.8414,401.934 296.8414,399.989 L296.8414,392.432 C296.8414,389.525 296.3674,387.317 295.4194,385.797 C294.4714,384.274 293.0494,383.24 291.1794,382.691 C289.2954,382.142 286.7764,381.868 283.6094,381.868 L278.8824,381.868 L278.8824,376.567 L283.0724,376.567 C287.0884,376.567 290.3564,376.854 292.8754,377.44 C295.4064,378.026 297.4404,378.974 298.9864,380.297 C300.5324,381.606 301.6294,383.314 302.2914,385.397 C302.9524,387.479 303.2764,390.099 303.2764,393.266 L303.2764,400.063 C303.2764,406.249 301.5924,410.502 298.2374,412.822 C294.8704,415.129 289.9444,416.289 283.4344,416.289 L278.8824,416.289 Z" id="Fill-3" fill="#1908FF"></path>
            <path d="M480.5103,415.703 L501.4113,395.125 L483.2903,377.153 L492.1333,377.153 L505.9763,391.296 L519.7813,377.153 L528.6243,377.153 L510.5033,395.125 L531.4063,415.703 L522.2013,415.703 L505.9763,399.004 L489.7133,415.703 L480.5103,415.703 Z M446.8403,368.137 L453.2763,368.137 L453.2763,361.003 L446.8403,361.003 L446.8403,368.137 Z M446.8403,415.703 L453.2763,415.703 L453.2763,377.153 L446.8403,377.153 L446.8403,415.703 Z M580.4773,376.567 L580.4773,381.868 L575.6383,381.868 C572.1343,381.868 569.4893,382.13 567.7193,382.653 C565.9603,383.178 564.6883,384.175 563.9273,385.635 C563.1553,387.094 562.6803,389.313 562.4813,392.281 L580.4773,392.281 L580.4773,397.582 L562.4813,397.582 L562.4813,399.989 C562.4813,402.233 562.7553,404.042 563.3173,405.438 C563.8773,406.823 564.7633,407.921 565.9733,408.744 C567.1823,409.555 568.7543,410.141 570.6993,410.477 C572.6573,410.813 575.0523,410.988 577.8963,410.988 L580.4773,410.988 L580.4773,416.289 L573.9913,416.289 C570.6243,416.289 567.6443,415.928 565.0503,415.191 C562.4563,414.455 560.3113,412.934 558.6023,410.602 C556.8943,408.282 556.0453,404.915 556.0453,400.5 L556.0453,392.132 C556.0453,387.779 556.9183,384.449 558.6643,382.155 C560.3983,379.873 562.6183,378.363 565.3123,377.64 C568.0053,376.929 571.1493,376.567 574.7523,376.567 L580.4773,376.567 Z M333.6033,415.703 L333.6033,377.153 L339.6023,377.153 L339.6023,381.643 L339.7523,381.643 C341.0613,379.723 342.6953,378.4 344.6403,377.665 C346.5863,376.929 349.2183,376.567 352.5353,376.567 L362.9483,376.567 C365.8923,376.567 368.4363,377.166 370.5813,378.363 C372.7263,379.548 374.2973,381.319 375.2953,383.664 C377.4413,378.937 382.1553,376.567 389.4383,376.567 L397.2203,376.567 C400.5873,376.567 403.5313,377.079 406.0743,378.089 C408.6313,379.099 410.5653,380.583 411.8863,382.566 C413.2213,384.537 413.8823,386.969 413.8823,389.875 L413.8823,415.703 L407.4473,415.703 L407.4473,390.635 C407.4473,387.954 406.5863,385.821 404.8643,384.237 C403.1563,382.653 399.9513,381.868 395.2493,381.868 L390.7103,381.868 C387.0193,381.868 384.2123,382.329 382.2923,383.24 C380.3833,384.15 379.1123,385.397 378.4763,386.969 C377.8393,388.54 377.5283,390.498 377.5283,392.868 L377.5283,415.703 L371.0923,415.703 L371.0923,392.356 C371.0923,390.386 370.9063,388.739 370.5313,387.442 C370.1453,386.133 369.5333,385.086 368.6603,384.274 C367.8003,383.476 366.5403,382.878 364.8943,382.467 C363.2603,382.067 361.1283,381.868 358.5213,381.868 L352.0983,381.868 C344.0543,381.868 340.0383,385.086 340.0383,391.508 L340.0383,415.703 L333.6033,415.703 Z M580.4773,397.582 L580.4773,392.281 L598.4733,392.281 L598.4733,389.724 C598.4733,387.43 597.4393,385.547 595.3673,384.075 C593.2983,382.603 589.8683,381.868 585.0673,381.868 L580.4773,381.868 L580.4773,376.567 L585.0673,376.567 C589.2323,376.567 592.7493,377.029 595.6423,377.939 C598.5233,378.849 600.7933,380.533 602.4393,382.977 C604.0853,385.434 604.9083,388.864 604.9083,393.266 L604.9083,397.582 L580.4773,397.582 Z M580.4773,416.289 L580.4773,410.988 L586.7133,410.988 C589.6063,410.988 591.8643,410.813 593.4723,410.465 C595.0813,410.103 596.2903,409.43 597.1023,408.432 C597.9243,407.434 598.3733,405.975 598.4733,404.042 L604.9083,404.042 L604.9083,404.852 C604.9083,407.696 604.1603,409.978 602.6633,411.662 C601.1553,413.358 598.9973,414.556 596.1543,415.241 C593.3103,415.939 589.8303,416.289 585.6783,416.289 L580.4773,416.289 Z M657.6213,376.567 L657.6213,381.868 L652.8953,381.868 C649.7273,381.868 647.2083,382.142 645.3243,382.691 C643.4543,383.24 642.0323,384.274 641.0843,385.797 C640.1373,387.317 639.6623,389.525 639.6623,392.432 L639.6623,399.989 C639.6623,401.934 639.8503,403.593 640.2243,404.939 C640.6113,406.3 641.2463,407.409 642.1453,408.282 C643.0423,409.168 644.3523,409.829 646.0353,410.29 C647.7323,410.752 649.8643,410.988 652.4463,410.988 L657.6213,410.988 L657.6213,416.289 L653.0703,416.289 C649.9273,416.289 647.1833,416.052 644.8513,415.591 C642.5063,415.129 640.4613,414.293 638.6903,413.097 C636.9193,411.887 635.5723,410.216 634.6373,408.083 C633.7013,405.95 633.2283,403.281 633.2283,400.063 L633.2283,393.266 C633.2283,390.099 633.5523,387.479 634.2003,385.41 C634.8363,383.34 635.9473,381.643 637.5183,380.308 C639.0893,378.987 641.1473,378.026 643.6793,377.44 C646.2103,376.854 649.4653,376.567 653.4313,376.567 L657.6213,376.567 Z M657.6213,416.289 L657.6213,410.988 L662.9353,410.988 C666.0523,410.988 668.5463,410.564 670.4053,409.704 C672.2763,408.856 673.5973,407.621 674.3963,406.025 C675.1813,404.416 675.5803,402.384 675.5803,399.914 L675.5803,392.568 C675.5803,389.625 675.0443,387.368 673.9593,385.808 C672.8743,384.25 671.3273,383.202 669.3203,382.666 C667.2993,382.13 664.7303,381.868 661.5873,381.868 L657.6213,381.868 L657.6213,376.567 L663.2343,376.567 C666.8883,376.567 669.6693,377.029 671.5773,377.939 C673.4973,378.849 674.7823,380.321 675.4313,382.342 L675.5803,382.342 L675.5803,361.003 L682.0163,361.003 L682.0163,415.703 L676.0173,415.703 L676.0173,409.567 L675.8673,409.567 C675.2693,411.1 674.3093,412.36 672.9983,413.371 C671.7013,414.368 670.1183,415.104 668.2593,415.578 C666.3893,416.052 664.3193,416.289 662.0243,416.289 L657.6213,416.289 Z" id="Fill-5" fill="#1908FF"></path>
            <path d="M394.0942,340.1981 L341.5642,340.1981 L341.5642,189.1741 C341.5642,176.5601 336.3852,165.0731 328.0442,156.7311 C319.7012,148.3901 308.2152,143.2111 295.6022,143.2111 L295.6002,143.2111 C282.9862,143.2111 271.5002,148.3891 263.1582,156.7311 C254.8172,165.0731 249.6372,176.5601 249.6372,189.1741 L249.6372,340.1981 L197.1072,340.1981 L197.1072,189.1741 C197.1072,162.0631 208.1802,137.4331 226.0192,119.5931 C243.8582,101.7541 268.4882,90.6801 295.6002,90.6801 L295.6022,90.6801 C322.7122,90.6801 347.3422,101.7541 365.1832,119.5931 C366.0832,120.4921 366.9652,121.4111 367.8302,122.3461 C368.6952,121.4111 369.5772,120.4921 370.4772,119.5931 C388.3152,101.7541 412.9452,90.6801 440.0582,90.6801 L440.0592,90.6801 C467.1692,90.6801 491.7992,101.7541 509.6412,119.5931 C527.4792,137.4331 538.5532,162.0631 538.5532,189.1741 L538.5532,340.1981 L486.0222,340.1981 L486.0222,189.1741 C486.0222,176.5601 480.8422,165.0731 472.5012,156.7311 C464.1592,148.3901 452.6722,143.2111 440.0592,143.2111 L440.0582,143.2111 C427.4442,143.2111 415.9582,148.3891 407.6152,156.7311 C399.2752,165.0731 394.0952,176.5601 394.0952,189.1741 L394.0952,340.1981 L394.0942,340.1981 Z" id="Fill-7" fill="#1908FF"></path>
            <g id="Group-11" transform="translate(0.000000, 142.289000)">
                <mask id="mask-2" fill="white">
                    <use xlink:href="#path-1"></use>
                </mask>
                <g id="Clip-10"></g>
                <path d="M98.4937,0.9209 L163.6317,0.9209 L163.6317,53.4519 L98.4937,53.4519 C85.8807,53.4519 74.3927,58.6309 66.0517,66.9719 C57.7097,75.3149 52.5307,86.8009 52.5307,99.4139 L52.5307,99.4159 C52.5307,112.0299 57.7087,123.5159 66.0517,131.8579 C74.3927,140.1989 85.8807,145.3789 98.4937,145.3789 L176.2397,145.3789 L176.2397,197.9089 L98.4937,197.9089 C71.3837,197.9089 46.7537,186.8349 28.9117,168.9969 C11.0737,151.1579 -0.0003,126.5279 -0.0003,99.4159 L-0.0003,99.4139 C-0.0003,72.3039 11.0737,47.6739 28.9117,29.8329 C46.7537,11.9939 71.3837,0.9209 98.4937,0.9209" id="Fill-9" fill="#1908FF" mask="url(#mask-2)"></path>
            </g>
        </g>
    </g>
</svg>